Coordinates
version=1
nRows=29
nColumns=24
inDegrees=yes

Units are S.I. units (second, meters, Newtons, ...)
Angles are in degrees.

endheader
time	pelvis_tilt	pelvis_list	pelvis_rotation	pelvis_tx	pelvis_ty	pelvis_tz	hip_flexion_r	hip_adduction_r	hip_rotation_r	knee_angle_r	ankle_angle_r	subtalar_angle_r	mtp_angle_r	hip_flexion_l	hip_adduction_l	hip_rotation_l	knee_angle_l	ankle_angle_l	subtalar_angle_l	mtp_angle_l	lumbar_extension	lumbar_bending	lumbar_rotation
      3.17500000	     -2.21627640	      4.76284619	      3.54986267	     -1.52245113	      0.91577903	      0.20890179	     31.00590634	     -2.23792919	     -5.32164343	    -13.42991011	     10.91877109	     -3.58132915	      0.00000000	    -11.76153950	      9.50814235	      8.68718118	    -15.85295201	     24.25938134	    -10.68600343	      0.00000000	    -11.78492504	     -4.62026319	    -12.49213777
      3.18000000	     -2.11995821	      4.56415841	      3.60336838	     -1.51479402	      0.91498317	      0.20905944	     30.97932388	     -2.02432729	     -5.26209555	    -14.23547795	     10.21388420	     -4.22608483	      0.00000000	    -11.83541770	      9.21097796	      8.21362923	    -16.83836641	     24.38558545	     -9.92487422	      0.00000000	    -11.83687378	     -4.30509174	    -12.48417241
      3.18500000	     -2.19409869	      4.36179152	      3.58745759	     -1.50718638	      0.91400136	      0.20940749	     31.14593285	     -1.75190993	     -4.98790163	    -15.06304341	      9.28857779	     -5.09203174	      0.00000000	    -11.63327057	      8.91558165	      7.50761261	    -17.96816135	     24.49747877	     -9.03144114	      0.00000000	    -11.68577663	     -4.02520578	    -12.38081837
      3.19000000	     -2.26744035	      4.10589626	      3.52502437	     -1.49954979	      0.91311277	      0.20985851	     31.31911896	     -1.40107977	     -4.70424237	    -15.91849497	      8.27093163	     -5.97810700	      0.00000000	    -11.38319207	      8.55598871	      6.71147263	    -19.16628325	     24.53395956	     -8.11821263	      0.00000000	    -11.52947700	     -3.69332838	    -12.23308078
      3.19500000	     -2.34880501	      3.80485272	      3.43580498	     -1.49193214	      0.91232173	      0.21036081	     31.50551278	     -0.99221952	     -4.42161102	    -16.78892163	      7.20153926	     -6.86324731	      0.00000000	    -11.06130584	      8.14024885	      5.85673880	    -20.45958676	     24.47506113	     -7.20222916	      0.00000000	    -11.36446657	     -3.31070481	    -12.05403716
      3.20000000	     -2.43587717	      3.45777805	      3.32036523	     -1.48432363	      0.91162841	      0.21092493	     31.70329210	     -0.52105695	     -4.12074792	    -17.67845864	      6.13214085	     -7.74003804	      0.00000000	    -10.66986734	      7.66392293	      4.94878621	    -21.84892183	     24.31132210	     -6.29755323	      0.00000000	    -11.19305658	     -2.87811067	    -11.84214123
      3.20500000	     -2.52529020	      3.07413448	      3.17772959	     -1.47672746	      0.91103270	      0.21154519	     31.90865461	      0.00566193	     -3.79115862	    -18.58721889	      5.09860132	     -8.60175365	      0.00000000	    -10.21652693	      7.13500337	      4.00408237	    -23.32876402	     24.03124943	     -5.40534392	      0.00000000	    -11.02189937	     -2.40769050	    -11.60612848
      3.21000000	     -2.61252507	      2.65886544	      3.01904811	     -1.46913273	      0.91053249	      0.21220682	     32.11298961	      0.57838478	     -3.44035649	    -19.51436465	      4.14371687	     -9.43412288	      0.00000000	     -9.70683380	      6.55509002	      3.04551651	    -24.90104278	     23.62297370	     -4.53808760	      0.00000000	    -10.85479585	     -1.90222734	    -11.35335125
      3.21500000	     -2.70223583	      2.17370881	      2.84881056	     -1.46142985	      0.91012508	      0.21283582	     32.30731965	      1.21465739	     -3.16854333	    -20.44464519	      3.33066429	    -10.13036739	      0.00000000	     -9.15470521	      5.89469792	      2.12657167	    -26.54248804	     23.06892163	     -3.75584384	      0.00000000	    -10.66282479	     -1.30472886	    -11.05022337
      3.22000000	     -2.76709779	      1.73981919	      2.67055557	     -1.45384924	      0.90979560	      0.21359416	     32.47625568	      1.83848652	     -2.75458714	    -21.38608114	      2.60830214	    -10.91298294	      0.00000000	     -8.55304986	      5.24578189	      1.15525945	    -28.29619347	     22.38687628	     -2.92021421	      0.00000000	    -10.53160036	     -0.78744599	    -10.79691725
      3.22500000	     -2.81346440	      1.31207433	      2.46881275	     -1.44631092	      0.90953782	      0.21440597	     32.61224306	      2.49086776	     -2.22940731	    -22.31781654	      1.97205144	    -11.73152983	      0.00000000	     -7.93201082	      4.59879088	      0.26710307	    -30.10225610	     21.54790160	     -2.20152307	      0.00000000	    -10.43504709	     -0.28128618	    -10.56082965
      3.23000000	     -2.85079748	      0.84887264	      2.28314997	     -1.43866385	      0.90935814	      0.21519238	     32.70158939	      3.15959307	     -1.83503189	    -23.20801054	      1.55382673	    -12.38777549	      0.00000000	     -7.27763495	      3.88949825	     -0.58449743	    -31.97734656	     20.56208472	     -1.51800565	      0.00000000	    -10.32991386	      0.26916170	    -10.30435079
      3.23500000	     -2.87203328	      0.38406404	      2.09472933	     -1.43102457	      0.90923382	      0.21599680	     32.74739606	      3.83658895	     -1.45618347	    -24.06473552	      1.29470596	    -12.97579457	      0.00000000	     -6.59804685	      3.16529512	     -1.37198508	    -33.90675317	     19.44107873	     -0.91041669	      0.00000000	    -10.25000118	      0.81783132	    -10.06037977
      3.24000000	     -2.87268586	     -0.09459255	      1.90489983	     -1.42338766	      0.90916422	      0.21677301	     32.74407294	      4.51800871	     -1.15305191	    -24.88517219	      1.23081204	    -13.40388142	      0.00000000	     -5.90307916	      2.42363480	     -2.07511803	    -35.87916875	     18.20064619	     -0.40697249	      0.00000000	    -10.19888831	      1.38837193	     -9.80360413
      3.24500000	     -2.87749172	     -0.53671104	      1.71722429	     -1.41577183	      0.90913213	      0.21767112	     32.69237161	      5.19300573	     -0.78930854	    -25.62074298	      1.25315559	    -13.93048645	      0.00000000	     -5.16167020	      1.69395121	     -2.73901516	    -37.88919515	     16.82431223	      0.04755520	      0.00000000	    -10.14501047	      1.89382278	     -9.59902609
      3.25000000	     -2.85846697	     -1.00064573	      1.52831820	     -1.40816776	      0.90917260	      0.21847993	     32.58330064	      5.86469356	     -0.53956819	    -26.30925072	      1.47530338	    -14.22170202	      0.00000000	     -4.41979696	      0.96206368	     -3.27871044	    -39.90695518	     15.34159430	      0.31951428	      0.00000000	    -10.13002646	      2.43825082	     -9.34940900
      3.25500000	     -2.85114205	     -1.43909175	      1.34005536	     -1.40062313	      0.90922359	      0.21937156	     32.44467038	      6.52641477	     -0.27365645	    -26.92608351	      1.77061023	    -14.54809467	      0.00000000	     -3.62463815	      0.24231582	     -3.77378261	    -41.94808726	     13.79712681	      0.51870831	      0.00000000	    -10.10976867	      2.93569527	     -9.13691476
      3.26000000	     -2.84425252	     -1.86912857	      1.14590207	     -1.39311926	      0.90931755	      0.22028156	     32.26480362	      7.17778469	     -0.04908872	    -27.47174999	      2.17075342	    -14.80183837	      0.00000000	     -2.80231932	     -0.45882064	     -4.19019727	    -43.98077533	     12.19837238	      0.56588484	      0.00000000	    -10.09623901	      3.41497079	     -8.91756777
      3.26500000	     -2.86460006	     -2.28782378	      0.94476204	     -1.38567018	      0.90939996	      0.22123780	     32.07739872	      7.82083936	      0.15979743	    -27.95357834	      2.62785570	    -15.03401368	      0.00000000	     -1.91887861	     -1.14714983	     -4.55786189	    -46.01214046	     10.59679390	      0.48547511	      0.00000000	    -10.05859284	      3.87214937	     -8.69758139
      3.27000000	     -2.90757888	     -2.68789875	      0.73900295	     -1.37827940	      0.90949655	      0.22217334	     31.87676308	      8.43760708	      0.34967755	    -28.37183999	      3.15343599	    -15.20150400	      0.00000000	     -0.98541419	     -1.80054371	     -4.86543595	    -48.02082397	      8.99374170	      0.22858813	      0.00000000	     -9.99987862	      4.30844047	     -8.49339356
      3.27500000	     -2.86902694	     -3.08697955	      0.54036150	     -1.37091557	      0.90977478	      0.22305160	     31.54488648	      9.03260435	      0.47488108	    -28.71648418	      3.76324006	    -15.26283263	      0.00000000	     -0.12759383	     -2.43076456	     -5.10553965	    -49.97375287	      7.40215655	     -0.23288596	      0.00000000	    -10.04917533	      4.74856781	     -8.25496502
      3.28000000	     -3.00282863	     -3.45051782	      0.32696639	     -1.36371550	      0.90982236	      0.22399524	     31.39347023	      9.59602465	      0.62360691	    -29.04485575	      4.32765713	    -15.33060339	      0.00000000	      0.96577804	     -3.01310520	     -5.29824904	    -51.94009026	      5.89889980	     -0.83398731	      0.00000000	     -9.91144580	      5.13282384	     -8.01329810
      3.28500000	     -2.99638423	     -3.83133443	      0.11521301	     -1.35650766	      0.91014742	      0.22490614	     31.04539219	     10.15972847	      0.70325299	    -29.29315171	      4.93129760	    -15.32213295	      0.00000000	      1.90610978	     -3.60644861	     -5.47831490	    -53.82414431	      4.46931950	     -1.59905381	      0.00000000	     -9.94746675	      5.53901582	     -7.73963001
      3.29000000	     -3.12049007	     -4.15238586	     -0.08005139	     -1.34938481	      0.91032038	      0.22578998	     30.81406201	     10.65323745	      0.82231777	    -29.50873182	      5.57555438	    -15.27750806	      0.00000000	      3.01711826	     -4.11198987	     -5.58385854	    -55.67027704	      3.15510303	     -2.55007787	      0.00000000	     -9.82641780	      5.87454416	     -7.49362210
      3.29500000	     -3.12980857	     -4.51501741	     -0.28837119	     -1.34228173	      0.91071063	      0.22672056	     30.42695855	     11.18519471	      0.89152137	    -29.65858333	      6.16881896	    -15.21115952	      0.00000000	      4.00318567	     -4.67671777	     -5.72287485	    -57.44618783	      2.03109892	     -3.57863152	      0.00000000	     -9.85703303	      6.24815560	     -7.21610514
      3.30000000	     -3.25610082	     -4.79444473	     -0.46248636	     -1.33524274	      0.91099239	      0.22755936	     30.14806042	     11.61338605	      0.98959845	    -29.78977541	      6.81133097	    -15.11382246	      0.00000000	      5.13669510	     -5.11263261	     -5.76052954	    -59.15033340	      1.03657621	     -4.80745561	      0.00000000	     -9.73694950	      6.53600105	     -6.96634733
      3.30500000	     -3.28911320	     -5.11219627	     -0.64588307	     -1.32824965	      0.91144733	      0.22845217	     29.74444387	     12.07858275	      1.05474832	    -29.86504472	      7.37813856	    -15.00875695	      0.00000000	      6.16855952	     -5.60970573	     -5.83620745	    -60.78373285	      0.31321925	     -6.07582810	      0.00000000	     -9.74709093	      6.85357825	     -6.69215203
      3.31000000	     -3.39393730	     -5.35644853	     -0.79052387	     -1.32125267	      0.91187868	      0.22924629	     29.38790002	     12.45022793	      1.14770090	    -29.90212911	      7.99426201	    -14.88461434	      0.00000000	      7.28549584	     -5.99580832	     -5.83176489	    -62.31974942	     -0.25848951	     -7.48030557	      0.00000000	     -9.64816906	      7.09634899	     -6.45820094
      3.31500000	     -3.41901422	     -5.62394796	     -0.94110579	     -1.31431652	      0.91245620	      0.23007132	     28.93332689	     12.84330561	      1.21405405	    -29.90462667	      8.52393194	    -14.77043589	      0.00000000	      8.31145594	     -6.41858532	     -5.84925036	    -63.77299245	     -0.53705348	     -8.89232156	      0.00000000	     -9.66433031	      7.35569721	     -6.19778819
